HIERARCHY
ROOT Hips
{
	OFFSET 0.000000 0.000000 0.000000
	CHANNELS 6 Xposition Yposition Zposition Xrotation Yrotation Zrotation
	JOINT LeftUpLeg_virtual
	{
		OFFSET 0.000000 0.000000 0.000000
		CHANNELS 3 Xrotation Yrotation Zrotation
		JOINT LeftUpLeg
		{
			OFFSET 13.026900 -6.336304 -1.092800
			CHANNELS 3 Xrotation Yrotation Zrotation
			JOINT LeftLeg
			{
				OFFSET 0.524474 -46.096886 9.782700
				CHANNELS 3 Xrotation Yrotation Zrotation
				JOINT LeftFoot
				{
					OFFSET -0.524474 -53.427422 -12.948200
					CHANNELS 3 Xrotation Yrotation Zrotation
					JOINT LeftToeBase
					{
						OFFSET 0.192200 -14.009700 16.364100
						CHANNELS 3 Xrotation Yrotation Zrotation
						JOINT LeftToe_End
						{
							OFFSET -1.784700 -0.561700 9.474800
							CHANNELS 3 Xrotation Yrotation Zrotation
							End Site
							{
								OFFSET 0 0 0
							}
						}
					}
				}
			}
		}
	}
	JOINT RightUpLeg_virtual
	{
		OFFSET 0.000000 0.000000 0.000000
		CHANNELS 3 Xrotation Yrotation Zrotation
		JOINT RightUpLeg
		{
			OFFSET -12.883000 -6.336304 -1.092800
			CHANNELS 3 Xrotation Yrotation Zrotation
			JOINT RightLeg
			{
				OFFSET -0.524587 -46.096825 9.782800
				CHANNELS 3 Xrotation Yrotation Zrotation
				JOINT RightFoot
				{
					OFFSET 0.524587 -53.427383 -12.948300
					CHANNELS 3 Xrotation Yrotation Zrotation
					JOINT RightToeBase
					{
						OFFSET -0.192200 -14.009700 16.364100
						CHANNELS 3 Xrotation Yrotation Zrotation
						JOINT RightToe_End
						{
							OFFSET 1.784700 -0.561700 9.474800
							CHANNELS 3 Xrotation Yrotation Zrotation
							End Site
							{
								OFFSET 0 0 0
							}
						}
					}
				}
			}
		}
	}
	JOINT Spine_virtual
	{
		OFFSET 0.000000 0.000000 0.000000
		CHANNELS 3 Xrotation Yrotation Zrotation
		JOINT Spine
		{
			OFFSET 0.072000 7.257294 -0.789700
			CHANNELS 3 Xrotation Yrotation Zrotation
			JOINT Spine1
			{
				OFFSET 0.000000 12.508769 -0.658067
				CHANNELS 3 Xrotation Yrotation Zrotation
				JOINT Spine1_split
				{
					OFFSET 0.000000 12.508769 -0.658067
					CHANNELS 3 Xrotation Yrotation Zrotation
					JOINT Spine2
					{
						OFFSET 0.000000 12.508769 -0.658067
						CHANNELS 3 Xrotation Yrotation Zrotation
						JOINT Neck_virtual
						{
							OFFSET 0.000000 0.000000 0.000000
							CHANNELS 3 Xrotation Yrotation Zrotation
							JOINT Neck
							{
								OFFSET 0.000000 14.033295 7.520400
								CHANNELS 3 Xrotation Yrotation Zrotation
								JOINT Head
								{
									OFFSET 0.000000 8.198502 5.703100
									CHANNELS 3 Xrotation Yrotation Zrotation
									JOINT HeadTop_End
									{
										OFFSET 0.000000 17.760803 13.332701
										CHANNELS 3 Xrotation Yrotation Zrotation
										End Site
										{
											OFFSET 0 0 0
										}
									}
								}
							}
						}
						JOINT LeftShoulder_virtual
						{
							OFFSET 0.000000 0.000000 0.000000
							CHANNELS 3 Xrotation Yrotation Zrotation
							JOINT LeftShoulder
							{
								OFFSET 6.292450 5.785301 -0.669000
								CHANNELS 3 Xrotation Yrotation Zrotation
								JOINT LeftShoulder_split
								{
									OFFSET 6.292450 5.785301 -0.669000
									CHANNELS 3 Xrotation Yrotation Zrotation
									JOINT LeftArm
									{
										OFFSET 13.907140 -6.093903 1.965100
										CHANNELS 3 Xrotation Yrotation Zrotation
										JOINT LeftForeArm
										{
											OFFSET 34.140198 0.000000 0.000000
											CHANNELS 3 Xrotation Yrotation Zrotation
											JOINT LeftHand
											{
												OFFSET 40.960209 0.000000 0.000000
												CHANNELS 3 Xrotation Yrotation Zrotation
												End Site
												{
													OFFSET 0 0 0
												}
											}
										}
									}
								}
							}
						}
						JOINT RightShoulder_virtual
						{
							OFFSET 0.000000 0.000000 0.000000
							CHANNELS 3 Xrotation Yrotation Zrotation
							JOINT RightShoulder
							{
								OFFSET -6.292450 5.785301 -0.669000
								CHANNELS 3 Xrotation Yrotation Zrotation
								JOINT RightShoulder_split
								{
									OFFSET -6.292450 5.785301 -0.669000
									CHANNELS 3 Xrotation Yrotation Zrotation
									JOINT RightArm
									{
										OFFSET -13.907140 -6.093903 1.965100
										CHANNELS 3 Xrotation Yrotation Zrotation
										JOINT RightForeArm
										{
											OFFSET -34.140198 0.000000 0.000000
											CHANNELS 3 Xrotation Yrotation Zrotation
											JOINT RightHand
											{
												OFFSET -40.960209 0.000000 0.000000
												CHANNELS 3 Xrotation Yrotation Zrotation
												End Site
												{
													OFFSET 0 0 0
												}
											}
										}
									}
								}
							}
						}
					}
				}
			}
		}
	}
}
MOTION
Frames: 5
Frame Time: 0.03333333
-1.201759 117.864304 -1.438541 0.000000 0.000000 0.000000 -5.653378 -3.304057 0.682926 -3.225225 6.025854 7.865091 12.878046 10.922652 0.914510 -4.854931 4.346634 -9.134055 1.418698 0.358709 -1.291215 0.000000 0.000000 0.000000 -5.466689 -2.583326 0.616923 -1.405198 -9.099717 -7.527332 12.388733 -8.620756 -0.354255 -3.099596 -5.671314 5.801485 -4.216845 -0.265232 -0.663403 0.000000 0.000000 0.000000 -5.069318 -3.163355 0.123531 3.506926 1.667829 -2.044846 1.320561 0.211127 0.153519 0.869748 -1.232597 0.129874 0.000000 0.000000 0.000000 0.743638 0.710395 0.005075 3.079205 0.306013 -0.132242 18.306988 -11.447348 0.191758 0.000000 0.000000 0.000000 0.841336 0.521883 -0.006442 2.800722 -3.967300 -12.493963 -1.319719 -0.975673 -1.654784 -3.874133 -7.849790 -58.848377 -1.271999 -13.017299 0.343989 0.000000 0.000000 0.000000 0.832008 0.363403 0.049998 2.387116 0.739419 15.467476 -0.351650 1.943521 -2.158048 -1.575614 8.477144 64.863233 0.166562 15.789377 1.070905 0.000000 0.000000 0.000000 
-1.173795 117.849480 -1.752758 0.000000 0.000000 0.000000 -5.779394 -3.189791 0.709866 -3.322107 5.909041 7.832398 13.002676 10.816825 0.919493 -4.813467 4.184064 -9.226095 1.351921 0.354840 -1.272403 0.000000 0.000000 0.000000 -5.594413 -2.350874 0.640056 -1.372124 -9.165241 -7.553190 12.304827 -8.572717 -0.399434 -3.098021 -5.775887 5.749198 -3.911754 -0.281204 -0.642437 0.000000 0.000000 0.000000 -5.129945 -2.870095 0.231060 3.569037 1.752076 -1.992019 1.337447 0.248693 0.130574 0.949436 -0.961960 0.214233 0.000000 0.000000 0.000000 0.696045 0.710171 0.007098 3.103845 0.210206 -0.145346 18.294976 -11.522690 0.269740 0.000000 0.000000 0.000000 0.833823 0.545860 -0.042798 2.777274 -3.839511 -12.568947 -1.463307 -0.550119 -1.910320 -3.087674 -7.200729 -58.695374 -1.262881 -12.489823 0.368505 0.000000 0.000000 0.000000 0.865161 0.418653 0.026226 2.362534 0.925912 15.460748 -0.424751 2.319451 -2.339789 -2.280788 8.808915 64.817238 0.239315 16.399465 0.950651 0.000000 0.000000 0.000000 
-1.236317 117.697990 -2.139305 0.000000 0.000000 0.000000 -5.989919 -2.624855 0.832193 -3.584391 5.764637 7.729046 13.373060 10.654772 0.891860 -4.940509 3.888180 -9.199367 1.268592 0.346899 -1.234908 0.000000 0.000000 0.000000 -5.819080 -1.673998 0.753898 -1.402269 -9.229581 -7.611545 12.680709 -8.559408 -0.415506 -3.327616 -6.153777 5.659572 -3.723163 -0.304209 -0.633045 0.000000 0.000000 0.000000 -5.344412 -2.273288 0.393899 3.759781 1.896761 -1.903740 1.366635 0.301830 0.120680 1.012607 -0.894658 0.254907 0.000000 0.000000 0.000000 0.660467 0.731534 0.024114 3.036700 0.075416 -0.145101 18.239561 -11.813324 0.445529 0.000000 0.000000 0.000000 0.848821 0.580201 -0.062471 2.751432 -3.746807 -12.606558 -1.658608 -0.380495 -1.973276 -2.119853 -6.080505 -58.742926 -1.156716 -11.613390 0.414521 0.000000 0.000000 0.000000 0.916774 0.492888 0.021112 2.320878 1.158172 15.498048 -0.345023 2.438735 -2.404657 -3.296389 9.659533 64.484779 0.329490 17.409440 0.830917 0.000000 0.000000 0.000000 
-1.385885 117.455879 -2.528793 0.000000 0.000000 0.000000 -6.256944 -1.718708 1.012174 -3.955679 5.613122 7.586068 13.950695 10.450732 0.845736 -5.233866 3.509960 -9.056966 1.194950 0.336373 -1.189789 0.000000 0.000000 0.000000 -6.130059 -0.716999 0.934150 -1.472168 -9.280432 -7.678486 13.426409 -8.572173 -0.409396 -3.782746 -6.758347 5.520705 -3.611270 -0.334575 -0.631720 0.000000 0.000000 0.000000 -5.665023 -1.492464 0.577718 4.038477 2.086932 -1.803051 1.394027 0.359386 0.123604 1.048284 -0.914190 0.256973 0.000000 0.000000 0.000000 0.645799 0.769649 0.052698 2.888593 -0.076172 -0.140208 18.166702 -12.277823 0.696739 0.000000 0.000000 0.000000 0.887991 0.622318 -0.055052 2.737977 -3.689019 -12.590309 -1.768634 -0.516254 -1.874736 -1.118351 -4.720794 -58.956800 -0.975134 -10.653380 0.457368 0.000000 0.000000 0.000000 0.974690 0.569377 0.036389 2.266695 1.398526 15.607710 -0.183639 2.316809 -2.332933 -4.341687 10.757177 63.955344 0.430349 18.650113 0.729138 0.000000 0.000000 0.000000 
-1.574227 117.157730 -2.951420 0.000000 0.000000 0.000000 -6.559846 -0.648366 1.206806 -4.383540 5.469189 7.458677 14.655158 10.212049 0.795308 -5.635967 3.100245 -8.856477 1.159807 0.325149 -1.148485 0.000000 0.000000 0.000000 -6.501877 0.294980 1.136892 -1.586184 -9.290854 -7.710656 14.362812 -8.603354 -0.387768 -4.363095 -7.513890 5.299780 -3.475197 -0.368448 -0.633816 0.000000 0.000000 0.000000 -6.066526 -0.644431 0.758629 4.350908 2.311708 -1.704345 1.410853 0.418843 0.140556 1.048524 -0.917992 0.266185 0.000000 0.000000 0.000000 0.658865 0.821604 0.091315 2.716159 -0.237802 -0.135000 18.111218 -12.860482 0.999523 0.000000 0.000000 0.000000 0.940748 0.674113 -0.025175 2.748177 -3.639314 -12.545597 -1.754954 -0.773144 -1.688124 -0.131419 -3.264807 -59.297407 -0.752813 -9.752019 0.463867 0.000000 0.000000 0.000000 1.027614 0.635242 0.069082 2.213333 1.627089 15.784081 0.031925 2.155981 -2.265283 -5.247069 11.824102 63.389285 0.518194 20.051076 0.668660 0.000000 0.000000 0.000000 
